<svg id="logo-dark" xmlns="http://www.w3.org/2000/svg" width="425.504" height="610.012" viewBox="0 0 425.504 610.012">
  <path id="Path_25" data-name="Path 25" d="M158.422,304.82q49.107-.219,98.216-.139c50.7,0,91.3-42.882,91.85-95.328,0-.355.024-.705.024-1.063,0-.289-.015-.577-.019-.866.073-32.02-.08-64.028-1.479-95.983-1.876-42.655-36.272-77.22-77.123-78.093-53.089-1.138-106.209-.973-159.327-.844l-.017-25.552a6.944,6.944,0,0,0-11.584-5.16L17.969,74.571a6.774,6.774,0,0,0-.263,9.835l81.37,81.37a6.778,6.778,0,0,0,11.569-4.8l-.015-23.054c27.612.1,55.229.248,82.832-.119q12.665-.168,25.326-.489c24.231-.654,24.871,11.73,24.423,29.325-.445,17.7,2.727,34.154-25.3,33.329-17.933-.528-35.883-.725-53.833-.788-42.325-.148-84.669.533-126.993-.019-18.03-.236-25.605,4.834-25.3,24.136.747,46.835.455,138.867.455,185.714L117.525,514.3c-.012-41.493-.029-128.166.015-169.659.044-44.516-1.9-39.629,40.882-39.819" transform="translate(-11.776 0)" fill="#171a40"/>
  <path id="Path_26" data-name="Path 26" d="M293.387,140.212c0,2.943.01,5.887.012,8.828l.007,4.259c-3.089,48.759-40.858,87.989-88.24,89.857-.4,0-.793,0-1.19,0l-5.651,0c-36.752.058-73.506.265-110.242-.438-20.249-.387-25.931,6.638-25.528,26.1.973,46.8.265,138.811.375,185.631l73.909,73.763V356.2c-.075-1.88-.1-3.846-.051-5.95.414-19.317.883-32.891,27.089-32.156,3.471.1,9.514.185,17.4.265,102.86,1.049,183.612-57.2,183.281-159.921-.029-8.886-.053-15.51-.073-18.857a79,79,0,0,0-.757-12.236L293.484,57.093q-.062,41.561-.1,83.119" transform="translate(60.941 81.79)" fill="#00a7e8"/>
</svg>
